<mxfile host="app.diagrams.net" modified="2022-04-20T14:49:42.144Z" agent="5.0 (Windows NT 10.0; Win64; x64) AppleWebKit/537.36 (KHTML, like Gecko) Chrome/100.0.4896.88 Safari/537.36" etag="WEKvLL8Ik_cnLY_PMjso" version="17.4.2" type="github">
  <diagram id="d9BGvvO0UqS8G2WiNVa1" name="Page-1">
    <mxGraphModel dx="1185" dy="743" grid="1" gridSize="10" guides="1" tooltips="1" connect="1" arrows="1" fold="1" page="1" pageScale="1" pageWidth="1100" pageHeight="850" math="1" shadow="0">
      <root>
        <mxCell id="0" />
        <mxCell id="1" parent="0" />
        <mxCell id="ERX5EftiHwPRE-UmqlVz-29" value="" style="group" vertex="1" connectable="0" parent="1">
          <mxGeometry x="120" y="40" width="310" height="312.2222222222223" as="geometry" />
        </mxCell>
        <mxCell id="ERX5EftiHwPRE-UmqlVz-30" value="" style="shape=stencil(lZzbchzHEUS/Bq8T0/fqZ1n+D0WIMhmmRQVF3/7e1QZnsFu5e4Z4A4nMxUx3dVXWpfel/PTnx1/++PCS9z+/ff3y9w///vTrt48v5S8vOX/6/eOHr5+++U8v5eeX8tNvX75++NvXL//8/dfXf//xy0Kun/7x5V/rE/7zyqttm32x8v7f1//Zt33//3/89RX/+dPv9/i9BHxKgC/bjPhKn5+3kQJ+ZMCnzWbAT8LvW7nHpy335/hi2xgB3ybgx7Ecb/jvC/AY37Zqd/i8ZXj+4uvZAr4R3n+9B/z3F3qM9+W436+y7bQ+vv0W8AXsIc8tt4Cn58+21RzwwwA/DnM58PUw2Mf4vs0R8IWep2+pBnyn923Hdr7hv2/gY3zd8r39+AeAvflypB7wnZ4/b+l+/TuedzffsL99K7Se+3Gc3vAd7C3NeB7HtsN6JttaCvhSAT+2bgHfwX5Sj/7E+Hl6XB9D+09y3m3rsP6pHub+hid/4vj9Hu8Hjta/xPM10Z5T3iwF/KT1d3d2f17SfniYx4S0jRYJFU6AE/KIBHIR/mu7d3H+ETutkT9AjYTChF0IHbzoueY3+Am7MKOTWMsMeNssR3wDq3Mbtog32OVx2MCJd7cECzRiUHJ8g+cfRwy6wdPz9MMHnvh6HNMn+BD0HE+nsokF1SOMPMFHA2qH23uC32fEU9R2JxE+390SfH4VEdTx1Fex54EnxmN0ifgG6y9OyN38DvtbRGR5WAC8W2/wKRM/Px8a7wZPqi8fmuEUWS6LKEpGe75QuS5yg4hLHGUOj3mDRy8d7d+fEKPAERNPfNky7K+/3Yz4Ceu5b+3epS8Lh+cRUb9OHKyniJQl62C/ROQ63kDFnbt/4t3+wf/v8by7B6aoLfFlqQJc/z3Yz9wG+DfBu8yvuP4Rnw4Z8sN4e9fzZIwXii+HbP9hvL3r8+vh4X9svzztI/8p9uB43q9gb6Vf7Fe+91eetvJ+lRTxA+0/xLtiF+cxnPfi/hk/f+wRT6peFF/dL85XKIo43uD8epJ0/zzV/TPig79dZQzEl/A8mQXoVlvEG+LbvX+rBe1HNHqtmEVKkcbxnePjvX3WhlWRfKidGzz5Z4nXtR9p2RN8Des/sCqSj7e7wXfUDyN8vmE8zbKehvtbYtGuzsNCnuDzvT031jMl5guOJ39eDnV94t1i8flD/tIy6vlTXdzgDfVwLLqUCz0c9EareN5rzO9aO8o2T/DxfRvub4vxpXXUq1KUamMrmO8Ef+54zneCf2iG/rkf3v7ET6wS9+O3Z5Fpx3jao352/MB8NviTntAfjpgv9Izx1OJ5dDzFUyl69XJ4pCf4UCTuFfWPFOEcT/nmPKzxxHs+C8+fREA4YVLA2KMF9Y4KK0lIdQKlGKvOFB7Jd5EKU1o55SQ1SRTonKUmSWs7p6mratIiodE+SCI/dhRaTmg5EvAviCsa6QjmzwhB+zmBYnGSCvy4SG573OmRscafRpQHTqDwneQ8j4JdMScMIVBATvOIjzcE7IOIxB8VQ87K6VskYE1FRJ0TqPWmVZjRDt3wmFAOH3FDoLLfioOB0LG7t9J+IVAhZkWG8A4DlYi74tCfcQKVFt23phwJlNsXSf6GoRgpUr0Zpzk+I4TwOSaatzYdnUC+1dPt0BV0AnnvIo7Mdla0IqnsTPIeE1rUbJYw5nrKHZI0y9g6KmJLTiDfWk5DOAnlsN/HBDuyyhtCp7rqPPzcSahcSN6Pfb0hYKVaUllr6Iyr5HZOoN6Ip677vau0jg2kKm7GBobdlbzOSKB0top+NsN+TZWGhBMGJQwjZsw2UdE7IThjJ2CKJCFr7hinPcVs9zs9WQk0qRo5gbKwJrY085G4PibkI6u+IVAe0CQRngXb354HBu/tBINVaqKXZsWg2GRgxwkUFJt0tGfjZE9MwwlkfE3ai7NjuuHZ3UyRQPXxLiHLCaT5uniNOdDNdClhOKGDM+6S0zuBQtbKeMIqGT/SiK1zJ9Bsx0ovWiSQq/RsIQwXzFN9PM5zd3mHieMpS5qPSMBMOscY5wRqHQ4ZiHIC9YpcpZo80qB3kGqGEwycwJD285xYvnGFF+qLTiApvRReEQIcoCXY4pAED/qZ9Dgu/oRJk+/irU2qzhcb4fKopkigsQoTWbmMCdzGUjtiG1RoN+nUrxNEjyQZx8UZNZl9cAL1glwpBP3jBNI/NiUE2eF5nhFiCGLX50rB1LkSQYozTqCC4JQK/RyYokyZm/OIQi2/FceFQPrHw3JI2WdHtT5VCjRMRv3XQXxfRPapIYi1gz9xmK1a6oQJ0fUV9JUrjpdIoIgyNSqyhpsybDQzmrcThghXtFbJy5yQQDus8xUeaUexMWUgywloSxY7LDZRYU3RcMst0Hmw2GNxx0P58ZQQ5K6NpPFyvTUS0DRmLFa6tyVXucJHiwTqI0wRTB4AyLdOqZR7iKFO7xRp7ASal5zijD3q0U7fBP6bugOlfo8ZNN/3iMHVkwevsWNL5MHK7jjpvfYu1I0n6u8pCazLLjylZ8r9g6W7KZHXCdRHmVo37piaqeNYFVF6aS1lNxzgnjpg3dA2plbXKw/Hyoj+qJilzHPk/KZY3uiRJMytNISOtQRSJ6A+edTlQLkhLdqRcGRlSlrjyRr1XOej1g41+ad0yTtPRU4prK1+FhP6/XlYKS29Q4l5kBPQNKQ46Fk2Gp/MuzuBBL4TWniHzupBhlF6Z48v06O9sS1J/b7z+PGU+dFe8dbB1FsiFQc6piSLveBEwZQRz15wpEyTlM4z7CYtNidkasqLAuoJ6zOmbfwdLwOZzgns2NoxGURoE1s7JpMOTiBhaTJK0QwvcL0V30/CQFsyuVHT+IqPS7CQXbaOFSATZ+wEKvivFoXM75ASNWlEtortKZOWQuOQ5YR6bxotY2vHpDLdEmaXJglv21FrmHjvelHPkbH/elELkXpONdTrJhMVdfAB0km5zgcox6svlWvfprN7DRvCJhFo3cElW8pyBbJiX9EJQcJdjHOa3I+ohe8TSUO4Zt5pKfVVntkwae1UTtpNxnkqt6dMwm7d8RKGpVjaKJyDm8Tpwl0/kzLZahEzIZRcnYAXx2SS+GKy3KQndzG6bnJ9rzTM40y0xhq+578QBoYupvtNRmHWfAKXvkM6UDJqb5OBdCeQMjaZhyuJK9l7bE8VnnewPV5MdQK1Ok1m+vJFNf7RrRWqhQyptqzBSTiiQzL2zNM5QzL2db0ZbGnIZGXmGaZVMggvXbkBZoeyOAk8iz+k+rjG1Wm4Va7I54QRaEgFdV2ogIAypEZ7cR9uSIq/LtzRS3e5JWxYTBwiQ5OheQ+RoWlctglnJNA0wjhnZk8C38IcMsOUGtaXnBD0UmoYsoZIuIuLsNquTTzvMCTbXVOvtA8S41LGxG/IZZw16ksbJzNMa5iYXlqKm4nL911SSydQg6CLm5n8B7Q/gGNbfURNaTi11SVNNCwg9B51Bt8X0NmIgYq1a3UMjahLrYu/laLLhZOO+V7XCzM8eCECumGdq8uFKM4/uxRwWFPpfE3F6eIuYqHifGeTYgx/y8q6/hHSMMzzmgw6nhv4DB/2i7PtJhGwYDG2SXjK6KhX/SFoKcw6mxQkMpbbmgwr8bcMNcn9E9/3kW461xaatOv5/leTzIi/talJjpBQXje5gLrz1J5EgB0rTlUCwI6V8yqlxR3z6yqVxR27bY5Pgof9qiIZd1S9VXo8O5bwqkwBXOJDkf0Sn96FFy13ia/v/Pz9XZ8vX/BxiS/vfP6Lb4HzH96+Qu63T58/v34D3e3v41fO+X+9fl1d+fl/);fillColor=#CCCCCC;strokeColor=#000000;dashed=1;" vertex="1" parent="ERX5EftiHwPRE-UmqlVz-29">
          <mxGeometry x="48.89" y="-15.95" width="240" height="236.17" as="geometry" />
        </mxCell>
        <mxCell id="ERX5EftiHwPRE-UmqlVz-1" value="" style="ellipse;whiteSpace=wrap;html=1;aspect=fixed;fillColor=#FFD966;" vertex="1" parent="ERX5EftiHwPRE-UmqlVz-29">
          <mxGeometry x="135.56111111111113" y="57.56" width="22.22222222222222" height="22.22222222222222" as="geometry" />
        </mxCell>
        <mxCell id="ERX5EftiHwPRE-UmqlVz-2" value="" style="ellipse;whiteSpace=wrap;html=1;aspect=fixed;fillColor=#FFD966;" vertex="1" parent="ERX5EftiHwPRE-UmqlVz-29">
          <mxGeometry x="80.00333333333333" y="90" width="22.22222222222222" height="22.22222222222222" as="geometry" />
        </mxCell>
        <mxCell id="ERX5EftiHwPRE-UmqlVz-33" style="edgeStyle=orthogonalEdgeStyle;rounded=0;orthogonalLoop=1;jettySize=auto;html=1;exitX=0;exitY=0.5;exitDx=0;exitDy=0;curved=1;dashed=1;strokeWidth=4;" edge="1" parent="ERX5EftiHwPRE-UmqlVz-29" source="ERX5EftiHwPRE-UmqlVz-3">
          <mxGeometry relative="1" as="geometry">
            <mxPoint x="10" y="240" as="targetPoint" />
            <Array as="points">
              <mxPoint x="136" y="149" />
              <mxPoint x="10" y="149" />
            </Array>
          </mxGeometry>
        </mxCell>
        <mxCell id="ERX5EftiHwPRE-UmqlVz-3" value="" style="ellipse;whiteSpace=wrap;html=1;aspect=fixed;fillColor=#EA6B66;" vertex="1" parent="ERX5EftiHwPRE-UmqlVz-29">
          <mxGeometry x="135.5577777777778" y="130" width="22.22222222222222" height="22.22222222222222" as="geometry" />
        </mxCell>
        <mxCell id="ERX5EftiHwPRE-UmqlVz-11" style="edgeStyle=orthogonalEdgeStyle;rounded=0;orthogonalLoop=1;jettySize=auto;html=1;exitX=0.5;exitY=1;exitDx=0;exitDy=0;entryX=0.5;entryY=0;entryDx=0;entryDy=0;" edge="1" parent="ERX5EftiHwPRE-UmqlVz-29" source="ERX5EftiHwPRE-UmqlVz-1" target="ERX5EftiHwPRE-UmqlVz-3">
          <mxGeometry relative="1" as="geometry" />
        </mxCell>
        <mxCell id="ERX5EftiHwPRE-UmqlVz-17" style="edgeStyle=none;rounded=0;orthogonalLoop=1;jettySize=auto;html=1;exitX=1;exitY=1;exitDx=0;exitDy=0;entryX=0;entryY=0;entryDx=0;entryDy=0;" edge="1" parent="ERX5EftiHwPRE-UmqlVz-29" source="ERX5EftiHwPRE-UmqlVz-2" target="ERX5EftiHwPRE-UmqlVz-3">
          <mxGeometry relative="1" as="geometry" />
        </mxCell>
        <mxCell id="ERX5EftiHwPRE-UmqlVz-12" style="rounded=0;orthogonalLoop=1;jettySize=auto;html=1;exitX=0;exitY=0.5;exitDx=0;exitDy=0;entryX=1;entryY=0;entryDx=0;entryDy=0;" edge="1" parent="ERX5EftiHwPRE-UmqlVz-29" source="ERX5EftiHwPRE-UmqlVz-4" target="ERX5EftiHwPRE-UmqlVz-3">
          <mxGeometry relative="1" as="geometry">
            <mxPoint x="156.67000000000002" y="130" as="targetPoint" />
          </mxGeometry>
        </mxCell>
        <mxCell id="ERX5EftiHwPRE-UmqlVz-4" value="" style="ellipse;whiteSpace=wrap;html=1;aspect=fixed;fillColor=#FFD966;" vertex="1" parent="ERX5EftiHwPRE-UmqlVz-29">
          <mxGeometry x="200.00111111111113" y="112.22" width="22.22222222222222" height="22.22222222222222" as="geometry" />
        </mxCell>
        <mxCell id="ERX5EftiHwPRE-UmqlVz-13" style="edgeStyle=none;rounded=0;orthogonalLoop=1;jettySize=auto;html=1;exitX=0;exitY=0;exitDx=0;exitDy=0;entryX=1;entryY=1;entryDx=0;entryDy=0;" edge="1" parent="ERX5EftiHwPRE-UmqlVz-29" source="ERX5EftiHwPRE-UmqlVz-5" target="ERX5EftiHwPRE-UmqlVz-3">
          <mxGeometry relative="1" as="geometry" />
        </mxCell>
        <mxCell id="ERX5EftiHwPRE-UmqlVz-5" value="" style="ellipse;whiteSpace=wrap;html=1;aspect=fixed;fillColor=#FFD966;" vertex="1" parent="ERX5EftiHwPRE-UmqlVz-29">
          <mxGeometry x="189.9977777777778" y="175.78000000000003" width="22.22222222222222" height="22.22222222222222" as="geometry" />
        </mxCell>
        <mxCell id="ERX5EftiHwPRE-UmqlVz-6" value="" style="ellipse;whiteSpace=wrap;html=1;aspect=fixed;" vertex="1" parent="ERX5EftiHwPRE-UmqlVz-29">
          <mxGeometry x="109.99777777777777" y="290" width="22.22222222222222" height="22.22222222222222" as="geometry" />
        </mxCell>
        <mxCell id="ERX5EftiHwPRE-UmqlVz-15" style="edgeStyle=none;rounded=0;orthogonalLoop=1;jettySize=auto;html=1;exitX=1;exitY=1;exitDx=0;exitDy=0;entryX=0;entryY=0;entryDx=0;entryDy=0;" edge="1" parent="ERX5EftiHwPRE-UmqlVz-29" source="ERX5EftiHwPRE-UmqlVz-7" target="ERX5EftiHwPRE-UmqlVz-6">
          <mxGeometry relative="1" as="geometry" />
        </mxCell>
        <mxCell id="ERX5EftiHwPRE-UmqlVz-7" value="" style="ellipse;whiteSpace=wrap;html=1;aspect=fixed;" vertex="1" parent="ERX5EftiHwPRE-UmqlVz-29">
          <mxGeometry x="65.55333333333334" y="242.44" width="22.22222222222222" height="22.22222222222222" as="geometry" />
        </mxCell>
        <mxCell id="ERX5EftiHwPRE-UmqlVz-8" value="" style="ellipse;whiteSpace=wrap;html=1;aspect=fixed;fillColor=#97D077;strokeColor=#000000;" vertex="1" parent="ERX5EftiHwPRE-UmqlVz-29">
          <mxGeometry y="242.44" width="22.22222222222222" height="22.22222222222222" as="geometry" />
        </mxCell>
        <mxCell id="ERX5EftiHwPRE-UmqlVz-16" style="edgeStyle=none;rounded=0;orthogonalLoop=1;jettySize=auto;html=1;exitX=0;exitY=0.5;exitDx=0;exitDy=0;entryX=1;entryY=0.5;entryDx=0;entryDy=0;" edge="1" parent="ERX5EftiHwPRE-UmqlVz-29" source="ERX5EftiHwPRE-UmqlVz-7" target="ERX5EftiHwPRE-UmqlVz-8">
          <mxGeometry relative="1" as="geometry" />
        </mxCell>
        <mxCell id="ERX5EftiHwPRE-UmqlVz-20" style="edgeStyle=none;rounded=0;orthogonalLoop=1;jettySize=auto;html=1;exitX=0;exitY=1;exitDx=0;exitDy=0;entryX=1;entryY=0;entryDx=0;entryDy=0;" edge="1" parent="ERX5EftiHwPRE-UmqlVz-29" source="ERX5EftiHwPRE-UmqlVz-18" target="ERX5EftiHwPRE-UmqlVz-7">
          <mxGeometry relative="1" as="geometry" />
        </mxCell>
        <mxCell id="ERX5EftiHwPRE-UmqlVz-18" value="" style="ellipse;whiteSpace=wrap;html=1;aspect=fixed;" vertex="1" parent="ERX5EftiHwPRE-UmqlVz-29">
          <mxGeometry x="109.9977777777778" y="198" width="22.22222222222222" height="22.22222222222222" as="geometry" />
        </mxCell>
        <mxCell id="ERX5EftiHwPRE-UmqlVz-19" style="edgeStyle=none;rounded=0;orthogonalLoop=1;jettySize=auto;html=1;entryX=1;entryY=0;entryDx=0;entryDy=0;exitX=0.5;exitY=1;exitDx=0;exitDy=0;" edge="1" parent="ERX5EftiHwPRE-UmqlVz-29" source="ERX5EftiHwPRE-UmqlVz-3" target="ERX5EftiHwPRE-UmqlVz-18">
          <mxGeometry relative="1" as="geometry">
            <mxPoint x="139" y="139" as="sourcePoint" />
          </mxGeometry>
        </mxCell>
        <mxCell id="ERX5EftiHwPRE-UmqlVz-27" style="edgeStyle=none;rounded=0;orthogonalLoop=1;jettySize=auto;html=1;exitX=0.5;exitY=1;exitDx=0;exitDy=0;entryX=0;entryY=0;entryDx=0;entryDy=0;" edge="1" parent="ERX5EftiHwPRE-UmqlVz-29" source="ERX5EftiHwPRE-UmqlVz-21" target="ERX5EftiHwPRE-UmqlVz-2">
          <mxGeometry relative="1" as="geometry" />
        </mxCell>
        <mxCell id="ERX5EftiHwPRE-UmqlVz-21" value="" style="ellipse;whiteSpace=wrap;html=1;aspect=fixed;fillColor=#FFD966;" vertex="1" parent="ERX5EftiHwPRE-UmqlVz-29">
          <mxGeometry x="65.55333333333334" y="35.34" width="22.22222222222222" height="22.22222222222222" as="geometry" />
        </mxCell>
        <mxCell id="ERX5EftiHwPRE-UmqlVz-26" style="edgeStyle=none;rounded=0;orthogonalLoop=1;jettySize=auto;html=1;exitX=0;exitY=1;exitDx=0;exitDy=0;entryX=0.5;entryY=0;entryDx=0;entryDy=0;" edge="1" parent="ERX5EftiHwPRE-UmqlVz-29" source="ERX5EftiHwPRE-UmqlVz-22" target="ERX5EftiHwPRE-UmqlVz-1">
          <mxGeometry relative="1" as="geometry" />
        </mxCell>
        <mxCell id="ERX5EftiHwPRE-UmqlVz-22" value="" style="ellipse;whiteSpace=wrap;html=1;aspect=fixed;fillColor=#FFD966;" vertex="1" parent="ERX5EftiHwPRE-UmqlVz-29">
          <mxGeometry x="157.78111111111116" width="22.22222222222222" height="22.22222222222222" as="geometry" />
        </mxCell>
        <mxCell id="ERX5EftiHwPRE-UmqlVz-25" style="edgeStyle=none;rounded=0;orthogonalLoop=1;jettySize=auto;html=1;exitX=0.5;exitY=1;exitDx=0;exitDy=0;entryX=0.5;entryY=0;entryDx=0;entryDy=0;" edge="1" parent="ERX5EftiHwPRE-UmqlVz-29" source="ERX5EftiHwPRE-UmqlVz-23" target="ERX5EftiHwPRE-UmqlVz-4">
          <mxGeometry relative="1" as="geometry" />
        </mxCell>
        <mxCell id="ERX5EftiHwPRE-UmqlVz-23" value="" style="ellipse;whiteSpace=wrap;html=1;aspect=fixed;fillColor=#FFD966;" vertex="1" parent="ERX5EftiHwPRE-UmqlVz-29">
          <mxGeometry x="200.00111111111113" y="50" width="22.22222222222222" height="22.22222222222222" as="geometry" />
        </mxCell>
        <mxCell id="ERX5EftiHwPRE-UmqlVz-28" style="edgeStyle=none;rounded=0;orthogonalLoop=1;jettySize=auto;html=1;exitX=0;exitY=0.5;exitDx=0;exitDy=0;entryX=1;entryY=0.5;entryDx=0;entryDy=0;" edge="1" parent="ERX5EftiHwPRE-UmqlVz-29" source="ERX5EftiHwPRE-UmqlVz-24" target="ERX5EftiHwPRE-UmqlVz-5">
          <mxGeometry relative="1" as="geometry" />
        </mxCell>
        <mxCell id="ERX5EftiHwPRE-UmqlVz-24" value="" style="ellipse;whiteSpace=wrap;html=1;aspect=fixed;fillColor=#FFD966;" vertex="1" parent="ERX5EftiHwPRE-UmqlVz-29">
          <mxGeometry x="249.9977777777778" y="175.78000000000003" width="22.22222222222222" height="22.22222222222222" as="geometry" />
        </mxCell>
        <mxCell id="ERX5EftiHwPRE-UmqlVz-32" value="$$\tilde{A}^2$$" style="text;html=1;strokeColor=none;fillColor=none;align=center;verticalAlign=middle;whiteSpace=wrap;rounded=0;dashed=1;fontSize=15;" vertex="1" parent="ERX5EftiHwPRE-UmqlVz-29">
          <mxGeometry x="-18.89" y="145.11" width="60" height="22" as="geometry" />
        </mxCell>
        <mxCell id="ERX5EftiHwPRE-UmqlVz-31" value="$$A^2$$" style="text;html=1;strokeColor=none;fillColor=none;align=center;verticalAlign=middle;whiteSpace=wrap;rounded=0;dashed=1;fontSize=15;" vertex="1" parent="ERX5EftiHwPRE-UmqlVz-29">
          <mxGeometry x="240" y="79.78" width="70" height="40" as="geometry" />
        </mxCell>
      </root>
    </mxGraphModel>
  </diagram>
</mxfile>
